# xmcd
#
# Track frame offsets:
#	182
#	17872
#	30517
#	46600
#	59687
#	79060
#	107020
#	123915
#	146392
#	161272
#	175292
#	189607
#	200867
#	215080
#
# Disc length: 3130 seconds
#
# Revision: 0
# Processed by: cddbd v1.4PL0 Copyright (c) Steve Scherf et al.
# Submitted via: dBpowerAMP V4.0
#
DISCID=c20c380e
DTITLE=The Dells Soul - Bring Back the Love
DYEAR=1976
DGENRE=Soul
TTITLE0=The Glory Of Love
TTITLE1=Oh What A Day
TTITLE2=I Can't Do Enough
TTITLE3=Darling dear
TTITLE4=Strung Out Over You
TTITLE5=A Little Understanding
TTITLE6=Bring Back The Love Of yesterday
TTITLE7=If You Move I'll Fall
TTITLE8=Does Anybody Know I'm Here
TTITLE9=If You really Love Your Girl (Show Her)
TTITLE10=Be For Real With Me
TTITLE11=Long Lonely nigths
TTITLE12=I'm Not Afraid Of Tomorrow
TTITLE13=Sweeter As The day Go By
EXTD=
EXTT0=
EXTT1=
EXTT2=
EXTT3=
EXTT4=
EXTT5=
EXTT6=
EXTT7=
EXTT8=
EXTT9=
EXTT10=
EXTT11=
EXTT12=
EXTT13=
PLAYORDER=
